<svg width="56" height="56" viewBox="0 0 56 56" fill="none" xmlns="http://www.w3.org/2000/svg">
<path fill-rule="evenodd" clip-rule="evenodd" d="M19.5 30C20.3284 30 21 30.582 21 31.3V41.7C21 42.418 20.3284 43 19.5 43C18.6716 43 18 42.418 18 41.7V31.3C18 30.582 18.6716 30 19.5 30Z" fill="#141414"/>
<path fill-rule="evenodd" clip-rule="evenodd" d="M13 36.5C13 35.6716 13.582 35 14.3 35H24.7C25.418 35 26 35.6716 26 36.5C26 37.3284 25.418 38 24.7 38H14.3C13.582 38 13 37.3284 13 36.5Z" fill="#141414"/>
<path fill-rule="evenodd" clip-rule="evenodd" d="M31 39.5C31 38.6716 31.5756 38 32.2857 38H41.7143C42.4244 38 43 38.6716 43 39.5C43 40.3284 42.4244 41 41.7143 41H32.2857C31.5756 41 31 40.3284 31 39.5Z" fill="#141414"/>
<path fill-rule="evenodd" clip-rule="evenodd" d="M31 33.5C31 32.6716 31.5756 32 32.2857 32H41.7143C42.4244 32 43 32.6716 43 33.5C43 34.3284 42.4244 35 41.7143 35H32.2857C31.5756 35 31 34.3284 31 33.5Z" fill="#141414"/>
<path fill-rule="evenodd" clip-rule="evenodd" d="M41.5594 14.3804C42.1281 14.9047 42.149 15.7751 41.6062 16.3244L33.4532 24.5744C32.9104 25.1237 32.0093 25.144 31.4406 24.6196C30.8719 24.0953 30.851 23.2249 31.3938 22.6756L39.5468 14.4256C40.0896 13.8763 40.9907 13.856 41.5594 14.3804Z" fill="#141414"/>
<path fill-rule="evenodd" clip-rule="evenodd" d="M31.4027 14.4027C31.9397 13.8658 32.8103 13.8658 33.3473 14.4027L41.5973 22.6527C42.1342 23.1897 42.1342 24.0603 41.5973 24.5973C41.0603 25.1342 40.1897 25.1342 39.6527 24.5973L31.4027 16.3473C30.8658 15.8103 30.8658 14.9397 31.4027 14.4027Z" fill="#141414"/>
<path fill-rule="evenodd" clip-rule="evenodd" d="M14 19.5C14 18.6716 14.5683 18 15.2692 18L23.7308 18C24.4317 18 25 18.6716 25 19.5C25 20.3284 24.4317 21 23.7308 21L15.2692 21C14.5683 21 14 20.3284 14 19.5Z" fill="#141414"/>
</svg>
