<svg width="56" height="56" viewBox="0 0 56 56" fill="none" xmlns="http://www.w3.org/2000/svg">
<path d="M18 31.5H37V26.5C37 24.2909 38.7909 22.5 41 22.5C43.2091 22.5 45 24.2909 45 26.5V34.5C45 36.7091 43.2091 38.5 41 38.5H14C11.7909 38.5 10 36.7091 10 34.5V26.5C10 24.2909 11.7909 22.5 14 22.5C16.2091 22.5 18 24.2909 18 26.5V31.5Z" stroke="#141414" stroke-width="3" stroke-linecap="round" stroke-linejoin="round"/>
<path d="M40.5 21.5V18C40.5 15.2386 38.2614 13 35.5 13H19C16.2386 13 14 15.2386 14 18V21.5" stroke="#141414" stroke-width="3" stroke-linecap="round" stroke-linejoin="round"/>
<path d="M41 39.5V42.5" stroke="#141414" stroke-width="3" stroke-linecap="round" stroke-linejoin="round"/>
<path d="M14 39.5V42.5" stroke="#141414" stroke-width="3" stroke-linecap="round" stroke-linejoin="round"/>
</svg>
