<svg width="144" height="96" viewBox="0 0 144 96" fill="none" xmlns="http://www.w3.org/2000/svg">
<path d="M127.5 53L123.86 46.5292C123.329 45.5846 122.329 45 121.245 45H87.7545C86.6707 45 85.6712 45.5846 85.1398 46.5292L81.5 53" stroke="#141414" stroke-width="3" stroke-linecap="round" stroke-linejoin="round"/>
<path d="M135.277 66.467L136.506 65.6068L135.277 66.467ZM133.857 64.4391L135.086 63.5789L133.857 64.4391ZM123.194 60.2938L124.423 61.154L123.194 60.2938ZM76.1426 64.4391L74.9138 63.5789L76.1426 64.4391ZM127.806 53.7062L126.577 52.846L127.806 53.7062ZM72.5 68.7609V77H75.5V68.7609H72.5ZM74.9138 63.5789L73.4942 65.6068L75.9519 67.3272L77.3715 65.2993L74.9138 63.5789ZM73 61.5H73.8314V58.5H73V61.5ZM78.9174 50.5H73V53.5H78.9174V50.5ZM88.0345 59.4337L83.4232 52.846L80.9655 54.5663L85.5768 61.154L88.0345 59.4337ZM102 60.5H90.0826V63.5H102V60.5ZM102 63.5H108V60.5H102V63.5ZM108 63.5H119.917V60.5H108V63.5ZM124.423 61.154L129.035 54.5663L126.577 52.846L121.965 59.4337L124.423 61.154ZM131.083 53.5H137V50.5H131.083V53.5ZM137 58.5H136.169V61.5H137V58.5ZM132.629 65.2993L134.048 67.3272L136.506 65.6068L135.086 63.5789L132.629 65.2993ZM134.5 68.7609V77H137.5V68.7609H134.5ZM132 79.5H108V82.5H132V79.5ZM108 79.5H102V82.5H108V79.5ZM78 82.5H102V79.5H78V82.5ZM134.5 77C134.5 78.3807 133.381 79.5 132 79.5V82.5C135.038 82.5 137.5 80.0376 137.5 77H134.5ZM134.048 67.3272C134.342 67.7474 134.5 68.248 134.5 68.7609H137.5C137.5 67.6324 137.153 66.5313 136.506 65.6068L134.048 67.3272ZM133.113 59.7657C131.63 61.2483 131.426 63.5815 132.629 65.2993L135.086 63.5789C134.719 63.0537 134.781 62.3403 135.234 61.887L133.113 59.7657ZM136.169 58.5C135.023 58.5 133.923 58.9553 133.113 59.7657L135.234 61.887C135.482 61.6392 135.818 61.5 136.169 61.5V58.5ZM139.5 56C139.5 57.3807 138.381 58.5 137 58.5V61.5C140.038 61.5 142.5 59.0376 142.5 56H139.5ZM119.917 63.5C121.712 63.5 123.394 62.6243 124.423 61.154L121.965 59.4337C121.498 60.102 120.733 60.5 119.917 60.5V63.5ZM85.5768 61.154C86.6061 62.6243 88.2879 63.5 90.0826 63.5V60.5C89.2668 60.5 88.5024 60.102 88.0345 59.4337L85.5768 61.154ZM78.9174 53.5C79.7332 53.5 80.4976 53.898 80.9655 54.5663L83.4232 52.846C82.3939 51.3757 80.7121 50.5 78.9174 50.5V53.5ZM70.5 56C70.5 54.6193 71.6193 53.5 73 53.5V50.5C69.9624 50.5 67.5 52.9624 67.5 56H70.5ZM73 58.5C71.6193 58.5 70.5 57.3807 70.5 56H67.5C67.5 59.0376 69.9624 61.5 73 61.5V58.5ZM76.887 59.7657C76.0766 58.9553 74.9775 58.5 73.8314 58.5V61.5C74.1818 61.5 74.5179 61.6392 74.7657 61.887L76.887 59.7657ZM77.3715 65.2993C78.5739 63.5815 78.3697 61.2483 76.887 59.7657L74.7657 61.887C75.219 62.3403 75.2814 63.0537 74.9138 63.5789L77.3715 65.2993ZM137 53.5C138.381 53.5 139.5 54.6193 139.5 56H142.5C142.5 52.9624 140.038 50.5 137 50.5V53.5ZM72.5 77C72.5 80.0376 74.9624 82.5 78 82.5V79.5C76.6193 79.5 75.5 78.3807 75.5 77H72.5ZM129.035 54.5663C129.502 53.898 130.267 53.5 131.083 53.5V50.5C129.288 50.5 127.606 51.3757 126.577 52.846L129.035 54.5663ZM75.5 68.7609C75.5 68.248 75.6578 67.7474 75.9519 67.3272L73.4942 65.6068C72.8471 66.5313 72.5 67.6324 72.5 68.7609H75.5Z" fill="#141414"/>
<path d="M118 75H93" stroke="#141414" stroke-width="3" stroke-linecap="round" stroke-linejoin="round"/>
<path d="M121 82V87.5C121 89.1569 122.343 90.5 124 90.5H130.5C132.157 90.5 133.5 89.1569 133.5 87.5V81" stroke="#141414" stroke-width="3" stroke-linecap="round" stroke-linejoin="round"/>
<path d="M78 82V87.5C78 89.1569 79.3431 90.5 81 90.5H87.5C89.1569 90.5 90.5 89.1569 90.5 87.5V81" stroke="#141414" stroke-width="3" stroke-linecap="round" stroke-linejoin="round"/>
<path d="M2 43H12.7931C13.5675 43 14.3099 43.3001 14.8754 43.8292C19.383 48.0465 28.0112 55.3778 32.5 56.5C38.5 58 59.5 59.5 59.5 68C59.5 72.3732 59.5 76.0158 59.5 78.502C59.5 80.1588 58.1569 81.5 56.5 81.5H49.5" stroke="#141414" stroke-width="3" stroke-linecap="round" stroke-linejoin="round"/>
<circle cx="38" cy="82" r="10" stroke="#141414" stroke-width="3"/>
<path d="M26.5 82H2" stroke="#141414" stroke-width="3" stroke-linecap="round" stroke-linejoin="round"/>
<path d="M76.5 44.5L80.1143 33.3284C80.7098 31.4878 78.6053 29.9582 77.0384 31.0929L69.6681 36.43C68.5857 37.2138 67.0539 36.736 66.6091 35.4758L63.5402 26.7805C62.8962 24.9559 60.2946 25.0181 59.7386 26.8715L57.6936 33.6881C57.3334 34.8888 55.9701 35.466 54.8573 34.889L48.6833 31.6876C46.9918 30.8106 45.1483 32.5713 45.9467 34.3013L48.276 39.348C48.8652 40.6245 47.988 42.0945 46.5848 42.1822L39.0096 42.6556C37.1431 42.7723 36.4436 45.1586 37.9517 46.2646L48.5 54" stroke="url(#paint0_linear)" stroke-width="3" stroke-linecap="round" stroke-linejoin="round"/>
<path d="M76.5 44.5L80.1143 33.3284C80.7098 31.4878 78.6053 29.9582 77.0384 31.0929L69.6681 36.43C68.5857 37.2138 67.0539 36.736 66.6091 35.4758L63.5402 26.7805C62.8962 24.9559 60.2946 25.0181 59.7386 26.8715L57.6936 33.6881C57.3334 34.8888 55.9701 35.466 54.8573 34.889L48.6833 31.6876C46.9918 30.8106 45.1483 32.5713 45.9467 34.3013L48.276 39.348C48.8652 40.6245 47.988 42.0945 46.5848 42.1822L39.0096 42.6556C37.1431 42.7723 36.4436 45.1586 37.9517 46.2646L48.5 54" stroke="black" stroke-width="3" stroke-linecap="round" stroke-linejoin="round"/>
<defs>
<linearGradient id="paint0_linear" x1="34" y1="16.5" x2="76.5" y2="45.5" gradientUnits="userSpaceOnUse">
<stop stop-color="#4DF4AF"/>
<stop offset="1" stop-color="#2AA1D5"/>
</linearGradient>
</defs>
</svg>
