<svg width="144" height="96" viewBox="0 0 144 96" fill="none" xmlns="http://www.w3.org/2000/svg">
<path fill-rule="evenodd" clip-rule="evenodd" d="M71.4463 26.8955C71.4805 27.011 71.5 27.1273 71.5061 27.2425C71.5966 27.3507 71.6732 27.4736 71.7321 27.6096C72.0614 28.3697 71.7121 29.2529 70.9519 29.5822C68.4594 30.6617 67.4952 32.9397 67.1976 35.2647C67.0505 36.4139 67.0806 37.5005 67.1504 38.3068C67.1851 38.7072 67.2289 39.0315 67.2632 39.2512C67.2803 39.3609 67.2949 39.444 67.3047 39.497C67.3096 39.5234 67.3132 39.5423 67.3154 39.5531L67.3172 39.562L67.3173 39.5626L67.3175 39.5635L67.3175 39.5636C67.4866 40.3734 66.968 41.1674 66.1582 41.3379C65.3475 41.5086 64.552 40.9898 64.3813 40.1791L65.849 39.8701C64.3813 40.1791 64.3812 40.1786 64.3811 40.1779L64.3808 40.1766L64.3801 40.1732L64.3782 40.1639L64.3725 40.1358C64.368 40.1128 64.3619 40.0813 64.3546 40.0419C64.3401 39.9632 64.3207 39.8524 64.299 39.7133C64.2557 39.4354 64.2029 39.0428 64.1616 38.5656C64.0794 37.6166 64.0399 36.3053 64.2219 34.8838C64.5401 32.3979 65.5818 29.3369 68.4961 27.4948C66.5182 20.6429 66.8469 15.2056 68.798 11.1636C70.783 7.05128 74.3431 4.60246 78.3057 3.60784C85.8236 1.72085 95.2319 5.00493 98.858 12.5051C106.361 12.3917 111.703 14.1751 115.128 17.2016C118.695 20.353 119.968 24.6619 119.605 28.923C118.896 37.2581 111.838 45.9704 102.563 46.4976C101.736 46.5446 101.027 45.9122 100.98 45.0851C100.933 44.258 101.565 43.5494 102.392 43.5024C109.889 43.0764 116.007 35.8228 116.616 28.6687C116.912 25.1852 115.879 21.8686 113.142 19.4498C110.374 17.0047 105.652 15.2895 98.2115 15.5208C97.8659 15.5315 97.544 15.4245 97.2843 15.2359C96.9097 15.0956 96.5917 14.8066 96.4256 14.4081C93.7632 8.01893 85.6616 4.85458 79.0361 6.51758C75.8041 7.3288 73.0426 9.27133 71.4997 12.4677C69.9466 15.6851 69.525 20.3905 71.4463 26.8955ZM82.3112 18.2715C81.9089 17.5473 80.9957 17.2864 80.2715 17.6887C79.5474 18.091 79.2864 19.0043 79.6888 19.7284L92.0947 42.0591L83.8473 40.0954C83.0414 39.9035 82.2325 40.4013 82.0406 41.2072C81.8487 42.0131 82.3465 42.8219 83.1524 43.0138L93.6524 45.5138C93.7812 45.5445 93.9101 45.5575 94.0366 45.5545L119.689 91.7284C120.091 92.4526 121.004 92.7135 121.728 92.3112C122.453 91.9089 122.714 90.9957 122.311 90.2715L91.3911 34.6153L91.3925 34.6117L96.3925 22.1117C96.7002 21.3425 96.3261 20.4696 95.5569 20.1619C94.7877 19.8542 93.9148 20.2284 93.6071 20.9975L89.5126 31.2339L82.3112 18.2715Z" fill="url(#paint0_linear)"/>
<path fill-rule="evenodd" clip-rule="evenodd" d="M71.4463 26.8955C71.4805 27.011 71.5 27.1273 71.5061 27.2425C71.5966 27.3507 71.6732 27.4736 71.7321 27.6096C72.0614 28.3697 71.7121 29.2529 70.9519 29.5822C68.4594 30.6617 67.4952 32.9397 67.1976 35.2647C67.0505 36.4139 67.0806 37.5005 67.1504 38.3068C67.1851 38.7072 67.2289 39.0315 67.2632 39.2512C67.2803 39.3609 67.2949 39.444 67.3047 39.497C67.3096 39.5234 67.3132 39.5423 67.3154 39.5531L67.3172 39.562L67.3173 39.5626L67.3175 39.5635L67.3175 39.5636C67.4866 40.3734 66.968 41.1674 66.1582 41.3379C65.3475 41.5086 64.552 40.9898 64.3813 40.1791L65.849 39.8701C64.3813 40.1791 64.3812 40.1786 64.3811 40.1779L64.3808 40.1766L64.3801 40.1732L64.3782 40.1639L64.3725 40.1358C64.368 40.1128 64.3619 40.0813 64.3546 40.0419C64.3401 39.9632 64.3207 39.8524 64.299 39.7133C64.2557 39.4354 64.2029 39.0428 64.1616 38.5656C64.0794 37.6166 64.0399 36.3053 64.2219 34.8838C64.5401 32.3979 65.5818 29.3369 68.4961 27.4948C66.5182 20.6429 66.8469 15.2056 68.798 11.1636C70.783 7.05128 74.3431 4.60246 78.3057 3.60784C85.8236 1.72085 95.2319 5.00493 98.858 12.5051C106.361 12.3917 111.703 14.1751 115.128 17.2016C118.695 20.353 119.968 24.6619 119.605 28.923C118.896 37.2581 111.838 45.9704 102.563 46.4976C101.736 46.5446 101.027 45.9122 100.98 45.0851C100.933 44.258 101.565 43.5494 102.392 43.5024C109.889 43.0764 116.007 35.8228 116.616 28.6687C116.912 25.1852 115.879 21.8686 113.142 19.4498C110.374 17.0047 105.652 15.2895 98.2115 15.5208C97.8659 15.5315 97.544 15.4245 97.2843 15.2359C96.9097 15.0956 96.5917 14.8066 96.4256 14.4081C93.7632 8.01893 85.6616 4.85458 79.0361 6.51758C75.8041 7.3288 73.0426 9.27133 71.4997 12.4677C69.9466 15.6851 69.525 20.3905 71.4463 26.8955ZM82.3112 18.2715C81.9089 17.5473 80.9957 17.2864 80.2715 17.6887C79.5474 18.091 79.2864 19.0043 79.6888 19.7284L92.0947 42.0591L83.8473 40.0954C83.0414 39.9035 82.2325 40.4013 82.0406 41.2072C81.8487 42.0131 82.3465 42.8219 83.1524 43.0138L93.6524 45.5138C93.7812 45.5445 93.9101 45.5575 94.0366 45.5545L119.689 91.7284C120.091 92.4526 121.004 92.7135 121.728 92.3112C122.453 91.9089 122.714 90.9957 122.311 90.2715L91.3911 34.6153L91.3925 34.6117L96.3925 22.1117C96.7002 21.3425 96.3261 20.4696 95.5569 20.1619C94.7877 19.8542 93.9148 20.2284 93.6071 20.9975L89.5126 31.2339L82.3112 18.2715Z" fill="black"/>
<path d="M81.5 56.0547L77.8602 49.5839C77.3288 48.6393 76.3293 48.0547 75.2455 48.0547H41.7545C40.6707 48.0547 39.6712 48.6393 39.1398 49.5839L35.5 56.0547" stroke="#141414" stroke-width="3" stroke-linecap="round" stroke-linejoin="round"/>
<path d="M89.2769 69.5217L90.5058 68.6615L89.2769 69.5217ZM87.8574 67.4938L89.0862 66.6336L87.8574 67.4938ZM77.1943 63.3485L78.4232 64.2087L77.1943 63.3485ZM30.1426 67.4938L28.9138 66.6336L30.1426 67.4938ZM81.8057 56.7608L80.5768 55.9006L81.8057 56.7608ZM26.5 71.8156V80.0547H29.5V71.8156H26.5ZM28.9138 66.6336L27.4942 68.6615L29.9519 70.3819L31.3715 68.354L28.9138 66.6336ZM27 64.5547H27.8314V61.5547H27V64.5547ZM32.9174 53.5547H27V56.5547H32.9174V53.5547ZM42.0345 62.4883L37.4232 55.9006L34.9655 57.621L39.5768 64.2087L42.0345 62.4883ZM56 63.5547H44.0826V66.5547H56V63.5547ZM56 66.5547H62V63.5547H56V66.5547ZM62 66.5547H73.9174V63.5547H62V66.5547ZM78.4232 64.2087L83.0345 57.621L80.5768 55.9006L75.9655 62.4883L78.4232 64.2087ZM85.0826 56.5547H91V53.5547H85.0826V56.5547ZM91 61.5547H90.1686V64.5547H91V61.5547ZM86.6285 68.354L88.0481 70.3819L90.5058 68.6615L89.0862 66.6336L86.6285 68.354ZM88.5 71.8156V80.0547H91.5V71.8156H88.5ZM86 82.5547H62V85.5547H86V82.5547ZM62 82.5547H56V85.5547H62V82.5547ZM32 85.5547H56V82.5547H32V85.5547ZM88.5 80.0547C88.5 81.4354 87.3807 82.5547 86 82.5547V85.5547C89.0376 85.5547 91.5 83.0923 91.5 80.0547H88.5ZM88.0481 70.3819C88.3422 70.8021 88.5 71.3026 88.5 71.8156H91.5C91.5 70.6871 91.1529 69.586 90.5058 68.6615L88.0481 70.3819ZM87.113 62.8203C85.6303 64.303 85.4261 66.6362 86.6285 68.354L89.0862 66.6336C88.7186 66.1084 88.781 65.395 89.2343 64.9417L87.113 62.8203ZM90.1686 61.5547C89.0225 61.5547 87.9234 62.01 87.113 62.8203L89.2343 64.9417C89.4821 64.6939 89.8182 64.5547 90.1686 64.5547V61.5547ZM93.5 59.0547C93.5 60.4354 92.3807 61.5547 91 61.5547V64.5547C94.0376 64.5547 96.5 62.0923 96.5 59.0547H93.5ZM73.9174 66.5547C75.7121 66.5547 77.3939 65.679 78.4232 64.2087L75.9655 62.4883C75.4976 63.1567 74.7332 63.5547 73.9174 63.5547V66.5547ZM39.5768 64.2087C40.6061 65.679 42.2879 66.5547 44.0826 66.5547V63.5547C43.2668 63.5547 42.5024 63.1567 42.0345 62.4883L39.5768 64.2087ZM32.9174 56.5547C33.7332 56.5547 34.4976 56.9527 34.9655 57.621L37.4232 55.9006C36.3939 54.4304 34.7121 53.5547 32.9174 53.5547V56.5547ZM24.5 59.0547C24.5 57.674 25.6193 56.5547 27 56.5547V53.5547C23.9624 53.5547 21.5 56.0171 21.5 59.0547H24.5ZM27 61.5547C25.6193 61.5547 24.5 60.4354 24.5 59.0547H21.5C21.5 62.0923 23.9624 64.5547 27 64.5547V61.5547ZM30.887 62.8203C30.0766 62.01 28.9775 61.5547 27.8314 61.5547V64.5547C28.1818 64.5547 28.5179 64.6939 28.7657 64.9417L30.887 62.8203ZM31.3715 68.354C32.5739 66.6362 32.3697 64.303 30.887 62.8203L28.7657 64.9417C29.219 65.395 29.2814 66.1084 28.9138 66.6336L31.3715 68.354ZM91 56.5547C92.3807 56.5547 93.5 57.674 93.5 59.0547H96.5C96.5 56.0171 94.0376 53.5547 91 53.5547V56.5547ZM26.5 80.0547C26.5 83.0923 28.9624 85.5547 32 85.5547V82.5547C30.6193 82.5547 29.5 81.4354 29.5 80.0547H26.5ZM83.0345 57.621C83.5024 56.9527 84.2668 56.5547 85.0826 56.5547V53.5547C83.2879 53.5547 81.6061 54.4304 80.5768 55.9006L83.0345 57.621ZM29.5 71.8156C29.5 71.3026 29.6578 70.8021 29.9519 70.3819L27.4942 68.6615C26.8471 69.586 26.5 70.6871 26.5 71.8156H29.5Z" fill="#141414"/>
<path d="M72 78.0547H47" stroke="#141414" stroke-width="3" stroke-linecap="round" stroke-linejoin="round"/>
<path d="M75 85.0547V90.5547C75 92.2115 76.3431 93.5547 78 93.5547H84.5C86.1569 93.5547 87.5 92.2115 87.5 90.5547V84.0547" stroke="#141414" stroke-width="3" stroke-linecap="round" stroke-linejoin="round"/>
<path d="M32 85.0547V90.5547C32 92.2115 33.3431 93.5547 35 93.5547H41.5C43.1569 93.5547 44.5 92.2115 44.5 90.5547V84.0547" stroke="#141414" stroke-width="3" stroke-linecap="round" stroke-linejoin="round"/>
<defs>
<linearGradient id="paint0_linear" x1="93.1163" y1="3.88414" x2="93.1163" y2="92.0597" gradientUnits="userSpaceOnUse">
<stop stop-color="#41D8BC"/>
<stop offset="1" stop-color="#57B1D7"/>
</linearGradient>
</defs>
</svg>
