<svg width="1920" height="710" viewBox="0 0 1920 710" fill="none" xmlns="http://www.w3.org/2000/svg">
<g filter="url(#filter0_f)">
<path d="M800.048 623.256C951.975 670.894 1037.76 828.71 991.657 975.747C945.552 1122.78 785.015 1203.36 633.088 1155.72C481.161 1108.09 395.375 950.272 441.48 803.234C487.585 656.197 648.121 575.618 800.048 623.256Z" fill="#5338FA"/>
</g>
<g filter="url(#filter1_f)">
<path d="M700.428 576.856C984.072 538.276 1331.97 725.503 1477.47 995.039C1622.98 1264.58 1658.75 1609.62 1375.11 1648.21C1091.46 1686.79 1056.43 1341.64 910.927 1072.1C765.422 802.563 416.784 615.437 700.428 576.856Z" fill="#44FFA5"/>
</g>
<g filter="url(#filter2_f)">
<ellipse cx="838.835" cy="655.712" rx="166" ry="140" transform="rotate(-43.2493 838.835 655.712)" fill="#58C8EB"/>
</g>
<defs>
<filter id="filter0_f" x="-178.18" y="0.819763" width="1789.5" height="1777.34" filterUnits="userSpaceOnUse" color-interpolation-filters="sRGB">
<feFlood flood-opacity="0" result="BackgroundImageFix"/>
<feBlend mode="normal" in="SourceGraphic" in2="BackgroundImageFix" result="shape"/>
<feGaussianBlur stdDeviation="268.09" result="effect1_foregroundBlur"/>
</filter>
<filter id="filter1_f" x="167.249" y="146.573" width="1846.2" height="1929.85" filterUnits="userSpaceOnUse" color-interpolation-filters="sRGB">
<feFlood flood-opacity="0" result="BackgroundImageFix"/>
<feBlend mode="normal" in="SourceGraphic" in2="BackgroundImageFix" result="shape"/>
<feGaussianBlur stdDeviation="212.623" result="effect1_foregroundBlur"/>
</filter>
<filter id="filter2_f" x="343.94" y="161.939" width="989.791" height="987.545" filterUnits="userSpaceOnUse" color-interpolation-filters="sRGB">
<feFlood flood-opacity="0" result="BackgroundImageFix"/>
<feBlend mode="normal" in="SourceGraphic" in2="BackgroundImageFix" result="shape"/>
<feGaussianBlur stdDeviation="139.03" result="effect1_foregroundBlur"/>
</filter>
</defs>
</svg>
