<svg width="163" height="40" viewBox="0 0 163 40" fill="none" xmlns="http://www.w3.org/2000/svg">
<g clip-path="url(#clip0)">
<path fill-rule="evenodd" clip-rule="evenodd" d="M72 0H0V40.2848H72V0ZM39.6838 30.8714V33.6582C38.7643 33.8861 37.7006 34 36.4928 34C34.0589 34 31.8144 33.4917 29.7592 32.4751C27.9276 31.5769 26.3216 29.3281 24.9941 27.4695L24.9941 27.4694C24.845 27.2608 24.6995 27.0571 24.5576 26.8607C23.548 27.1587 22.5475 27.3077 21.5559 27.3077C18.9779 27.3603 16.7424 26.4927 14.8494 24.7049C12.9745 22.9171 12.0551 20.7875 12.0911 18.3161C12.0551 15.8447 12.9745 13.7151 14.8494 11.9273C16.7424 10.1395 18.9779 9.27194 21.5559 9.32452C24.134 9.27194 26.3695 10.1395 28.2624 11.9273C30.1734 13.7151 31.1109 15.8447 31.0748 18.3161C31.0748 19.7183 30.7684 21.0241 30.1554 22.2335C29.5424 23.4429 28.6861 24.4682 27.5864 25.3096C27.8562 25.6541 28.136 26.0379 28.4248 26.4341L28.425 26.4344L28.4252 26.4347L28.4253 26.4348L28.4253 26.4348C29.4294 27.8122 30.5434 29.3406 31.7333 29.8986C33.2837 30.6172 35.1046 30.9765 37.1959 30.9765C37.7006 30.9765 38.5299 30.9415 39.6838 30.8714ZM21.583 24.0213C23.2235 24.0213 24.5847 23.4867 25.6664 22.4175C26.7661 21.3484 27.316 19.9812 27.316 18.3161C27.316 16.6685 26.7661 15.3101 25.6664 14.241C24.5847 13.1543 23.2235 12.6109 21.583 12.6109C19.9244 12.6109 18.5542 13.1455 17.4725 14.2147C16.3908 15.2839 15.85 16.651 15.85 18.3161C15.85 19.9812 16.3908 21.3484 17.4725 22.4175C18.5542 23.4867 19.9244 24.0213 21.583 24.0213ZM34.3015 9.64001H37.9523V26.9922H34.3015V9.64001ZM43.9322 11.9273C42.0392 13.6976 41.1108 15.8272 41.1468 18.3161C41.0928 20.805 42.0032 22.9433 43.8781 24.7311C45.7711 26.5014 48.0246 27.3603 50.6387 27.3077C52.3514 27.3077 53.9018 26.9308 55.29 26.1772C56.6782 25.406 57.7599 24.3455 58.5351 22.9959L55.7768 21.103C54.4967 23.0485 52.7931 24.0213 50.6658 24.0213C49.0072 24.0213 47.628 23.4867 46.5283 22.4175C45.4466 21.3484 44.9057 19.99 44.9057 18.3424C44.9057 16.6948 45.4466 15.3277 46.5283 14.241C47.628 13.1543 49.0072 12.6109 50.6658 12.6109C52.7931 12.6109 54.4967 13.5837 55.7768 15.5292L58.5351 13.6363C57.7418 12.2867 56.6511 11.235 55.2629 10.4813C53.8928 9.71012 52.3604 9.32452 50.6658 9.32452C48.0697 9.27194 45.8252 10.1395 43.9322 11.9273Z" fill="#141414"/>
</g>
<path d="M89.095 7.5V18H90.925V7.5H89.095ZM97.1287 10.29C96.0637 10.29 95.2837 10.74 94.8337 11.535V10.5H93.1087V18H94.8337V13.95C94.8337 12.735 95.5237 11.82 96.6637 11.82C97.6687 11.82 98.2537 12.405 98.2537 13.485V18H99.9787V13.305C99.9787 11.265 98.7787 10.29 97.1287 10.29ZM101.493 15.765C101.583 17.625 103.053 18.21 104.538 18.21C106.053 18.225 107.583 17.445 107.598 15.915C107.613 12.915 103.413 13.965 103.428 12.495C103.428 12.045 103.968 11.775 104.583 11.775C105.213 11.775 105.798 12.12 105.828 12.6H107.433C107.388 11.1 106.173 10.29 104.598 10.29C103.008 10.275 101.703 11.055 101.688 12.585C101.673 15.39 105.918 14.4 105.888 15.93C105.888 16.425 105.288 16.8 104.553 16.8C103.893 16.8 103.188 16.515 103.173 15.765H101.493ZM111.97 18.21C113.05 18.21 113.815 17.76 114.28 16.965V18H115.99V10.5H114.28V14.55C114.28 15.84 113.575 16.68 112.45 16.68C111.43 16.68 110.845 16.095 110.845 15.015V10.5H109.135V15.225C109.135 17.28 110.32 18.21 111.97 18.21ZM118.104 10.5V18H119.829V14.385C119.829 13.065 120.984 12.15 122.664 12.15V10.35C121.344 10.35 120.384 11.025 119.829 11.925V10.5H118.104ZM127.712 11.835C128.822 11.835 130.097 12.6 130.097 14.25C130.097 15.9 128.822 16.665 127.712 16.665C126.542 16.665 125.327 15.915 125.312 14.25C125.327 12.585 126.542 11.835 127.712 11.835ZM131.657 10.5H129.932V11.55C129.302 10.635 128.207 10.29 127.352 10.29C125.147 10.29 123.617 11.955 123.617 14.25C123.617 16.545 125.147 18.21 127.352 18.21C128.207 18.21 129.302 17.85 129.932 16.935V18H131.657V10.5ZM137.787 10.29C136.722 10.29 135.942 10.74 135.492 11.535V10.5H133.767V18H135.492V13.95C135.492 12.735 136.182 11.82 137.322 11.82C138.327 11.82 138.912 12.405 138.912 13.485V18H140.637V13.305C140.637 11.265 139.437 10.29 137.787 10.29ZM146.138 10.29C143.948 10.29 142.253 11.82 142.253 14.25C142.253 16.68 143.948 18.21 146.138 18.21C148.058 18.21 149.528 17.115 149.858 15.06H148.103C147.818 16.14 146.993 16.56 146.138 16.56C145.103 16.56 143.963 15.855 143.963 14.25C143.963 12.645 145.103 11.94 146.138 11.94C147.053 11.94 147.833 12.405 148.088 13.44H149.858C149.513 11.4 148.058 10.29 146.138 10.29ZM154.825 16.8C153.73 16.8 152.83 16.125 152.71 14.775H158.455C158.485 14.58 158.5 14.385 158.5 14.205C158.5 11.88 157.03 10.29 154.84 10.29C152.65 10.29 151.015 11.805 151.015 14.25C151.015 16.695 152.65 18.21 154.84 18.21C156.415 18.21 157.66 17.49 158.395 15.87H156.655C156.265 16.44 155.575 16.8 154.825 16.8ZM154.81 11.745C155.665 11.745 156.7 12.27 156.835 13.53H152.74C152.95 12.3 153.865 11.745 154.81 11.745ZM159.914 17.145C159.914 17.745 160.394 18.21 160.994 18.21C161.594 18.21 162.074 17.745 162.074 17.145C162.074 16.545 161.594 16.05 160.994 16.05C160.394 16.05 159.914 16.545 159.914 17.145ZM90.925 30.455H93.4C94.21 30.455 94.87 31.025 94.87 31.865C94.87 32.645 94.27 33.26 93.445 33.26H90.925V30.455ZM93.16 26.24C93.925 26.24 94.51 26.765 94.51 27.56C94.51 28.325 93.91 28.865 93.16 28.865H90.925V26.24H93.16ZM94.945 29.555C95.815 29.045 96.295 28.265 96.295 27.35C96.295 25.46 94.855 24.5 93.145 24.5H89.095V35H93.445C95.2 35 96.7 34.04 96.7 32C96.7 30.875 96.055 30.05 94.945 29.555ZM101.009 35.21C102.089 35.21 102.854 34.76 103.319 33.965V35H105.029V27.5H103.319V31.55C103.319 32.84 102.614 33.68 101.489 33.68C100.469 33.68 99.8842 33.095 99.8842 32.015V27.5H98.1742V32.225C98.1742 34.28 99.3592 35.21 101.009 35.21ZM111.434 33.365C111.104 33.485 110.729 33.56 110.369 33.56C109.634 33.56 109.124 33.185 109.124 32.315V29.045H111.254V27.5H109.124V25.535L107.414 25.805V27.5H106.319V29.045H107.414V32.48C107.414 34.295 108.509 35.12 109.979 35.12C110.489 35.12 110.969 35.045 111.434 34.88V33.365ZM116.526 32.765C116.616 34.625 118.086 35.21 119.571 35.21C121.086 35.225 122.616 34.445 122.631 32.915C122.646 29.915 118.446 30.965 118.461 29.495C118.461 29.045 119.001 28.775 119.616 28.775C120.246 28.775 120.831 29.12 120.861 29.6H122.466C122.421 28.1 121.206 27.29 119.631 27.29C118.041 27.275 116.736 28.055 116.721 29.585C116.706 32.39 120.951 31.4 120.921 32.93C120.921 33.425 120.321 33.8 119.586 33.8C118.926 33.8 118.221 33.515 118.206 32.765H116.526ZM125.983 27.5H124.258V35H125.983V27.5ZM124.168 25.355C124.168 25.895 124.573 26.3 125.113 26.3C125.638 26.3 126.073 25.895 126.073 25.355C126.073 24.83 125.638 24.395 125.113 24.395C124.573 24.395 124.168 24.83 124.168 25.355ZM136.769 27.29C135.689 27.29 134.789 27.8 134.204 28.7C133.889 27.935 133.229 27.305 132.029 27.305C131.039 27.305 130.244 27.68 129.794 28.43V27.5H128.069V35H129.794V30.785C129.794 29.66 130.469 28.835 131.444 28.835C132.329 28.835 132.854 29.405 132.854 30.485V35H134.564V30.71C134.564 29.645 135.239 28.835 136.199 28.835C137.099 28.835 137.639 29.39 137.639 30.485V35H139.349V29.945C139.349 28.82 138.854 27.29 136.769 27.29ZM145.287 33.665C144.177 33.665 142.902 32.9 142.902 31.25C142.902 29.6 144.177 28.835 145.287 28.835C146.457 28.835 147.672 29.585 147.687 31.25C147.672 32.915 146.457 33.665 145.287 33.665ZM141.342 38H143.067V33.95C143.697 34.865 144.792 35.21 145.647 35.21C147.867 35.21 149.382 33.545 149.397 31.25C149.382 28.955 147.867 27.29 145.647 27.29C144.792 27.29 143.712 27.65 143.067 28.565V27.5H141.342V38ZM151.026 24.29V35H152.751V24.29H151.026ZM158.196 33.8C157.101 33.8 156.201 33.125 156.081 31.775H161.826C161.856 31.58 161.871 31.385 161.871 31.205C161.871 28.88 160.401 27.29 158.211 27.29C156.021 27.29 154.386 28.805 154.386 31.25C154.386 33.695 156.021 35.21 158.211 35.21C159.786 35.21 161.031 34.49 161.766 32.87H160.026C159.636 33.44 158.946 33.8 158.196 33.8ZM158.181 28.745C159.036 28.745 160.071 29.27 160.206 30.53H156.111C156.321 29.3 157.236 28.745 158.181 28.745Z" fill="#141414"/>
<defs>
<clipPath id="clip0">
<rect width="72" height="40" rx="20" fill="white"/>
</clipPath>
</defs>
</svg>
